# xmcd CD database file
#
# Track frame offsets:
#	150
#	17616
#	36541
#	57712
#	78768
#	96083
#	117969
#	139126
#	157789
#	176034
#	192355
#
# Disc length: 2884 seconds
#
# Revision: 0
# Processed by: cddbd v1.5.2PL0 Copyright (c) Steve Scherf et al.
# Submitted via: CDex 1.51
#
DISCID=8f0b420b
DTITLE=Asa - On Off
DYEAR=2005
DGENRE=Jazz
TTITLE0=True Perfection
TTITLE1=Traditional Arms
TTITLE2=Voices
TTITLE3=Amsterdam
TTITLE4=Fallen Angel
TTITLE5=This Machine
TTITLE6=Breathe Again
TTITLE7=Feel ALone
TTITLE8=D I Moon
TTITLE9=Superflygirl
TTITLE10=On Off
EXTD=YEAR: 2005
EXTT0=
EXTT1=
EXTT2=
EXTT3=
EXTT4=
EXTT5=
EXTT6=
EXTT7=
EXTT8=
EXTT9=
EXTT10=
PLAYORDER=
